<svg width="16" height="15" viewBox="0 0 16 15" fill="none" xmlns="http://www.w3.org/2000/svg">
<g filter="url(#filter0_d)">
<path d="M13.4145 10.9312C13.1197 10.2331 12.692 9.59891 12.1551 9.06406C11.6198 8.52767 10.9858 8.10001 10.2879 7.80469C10.2817 7.80156 10.2754 7.8 10.2692 7.79688C11.2426 7.09375 11.8754 5.94844 11.8754 4.65625C11.8754 2.51562 10.141 0.78125 8.00041 0.78125C5.85978 0.78125 4.12541 2.51562 4.12541 4.65625C4.12541 5.94844 4.75822 7.09375 5.73166 7.79844C5.72541 7.80156 5.71916 7.80312 5.71291 7.80625C5.01291 8.10156 4.38478 8.525 3.84572 9.06563C3.30933 9.60089 2.88166 10.235 2.58634 10.9328C2.29622 11.616 2.13975 12.3485 2.12541 13.0906C2.12499 13.1073 2.12791 13.1239 2.13401 13.1394C2.1401 13.1549 2.14924 13.1691 2.16089 13.181C2.17254 13.193 2.18646 13.2025 2.20184 13.2089C2.21721 13.2154 2.23372 13.2188 2.25041 13.2188H3.18791C3.25666 13.2188 3.31134 13.1641 3.31291 13.0969C3.34416 11.8906 3.82853 10.7609 4.68478 9.90469C5.57072 9.01875 6.74728 8.53125 8.00041 8.53125C9.25353 8.53125 10.4301 9.01875 11.316 9.90469C12.1723 10.7609 12.6567 11.8906 12.6879 13.0969C12.6895 13.1656 12.7442 13.2188 12.8129 13.2188H13.7504C13.7671 13.2188 13.7836 13.2154 13.799 13.2089C13.8143 13.2025 13.8283 13.193 13.8399 13.181C13.8516 13.1691 13.8607 13.1549 13.8668 13.1394C13.8729 13.1239 13.8758 13.1073 13.8754 13.0906C13.8598 12.3437 13.7051 11.6172 13.4145 10.9312V10.9312ZM8.00041 7.34375C7.28322 7.34375 6.60822 7.06406 6.10041 6.55625C5.59259 6.04844 5.31291 5.37344 5.31291 4.65625C5.31291 3.93906 5.59259 3.26406 6.10041 2.75625C6.60822 2.24844 7.28322 1.96875 8.00041 1.96875C8.71759 1.96875 9.39259 2.24844 9.90041 2.75625C10.4082 3.26406 10.6879 3.93906 10.6879 4.65625C10.6879 5.37344 10.4082 6.04844 9.90041 6.55625C9.39259 7.06406 8.71759 7.34375 8.00041 7.34375Z" fill="white"/>
</g>
<defs>
<filter id="filter0_d" x="-1.87463" y="0.78125" width="19.7501" height="20.4375" filterUnits="userSpaceOnUse" color-interpolation-filters="sRGB">
<feFlood flood-opacity="0" result="BackgroundImageFix"/>
<feColorMatrix in="SourceAlpha" type="matrix" values="0 0 0 0 0 0 0 0 0 0 0 0 0 0 0 0 0 0 127 0"/>
<feOffset dy="4"/>
<feGaussianBlur stdDeviation="2"/>
<feColorMatrix type="matrix" values="0 0 0 0 0 0 0 0 0 0 0 0 0 0 0 0 0 0 0.25 0"/>
<feBlend mode="normal" in2="BackgroundImageFix" result="effect1_dropShadow"/>
<feBlend mode="normal" in="SourceGraphic" in2="effect1_dropShadow" result="shape"/>
</filter>
</defs>
</svg>
